<svg xmlns="http://www.w3.org/2000/svg" xmlns:xlink="http://www.w3.org/1999/xlink" width="500" zoomAndPan="magnify" viewBox="0 0 375 374.999991" height="500" preserveAspectRatio="xMidYMid meet" version="1.0"><path fill="#000000" d="M 288.390625 274.855469 C 224.394531 200.726562 163.992188 126.101562 100.878906 51.5 C 79.335938 24.234375 32.519531 35.152344 35.347656 74.714844 C 35.3125 150.195312 35.316406 225.675781 35.355469 301.160156 C 33.710938 338.125 77.402344 350.800781 96.308594 319.550781 C 113.730469 293.9375 131.296875 268.414062 148.082031 242.390625 C 148.121094 242.324219 148.164062 242.261719 148.203125 242.199219 C 153.0625 234.519531 143.972656 225.589844 136.339844 230.515625 C 117.421875 242.734375 102.472656 259.984375 83.222656 275.171875 L 83.222656 100.261719 C 134.59375 159.65625 183.074219 219.730469 233.632812 279.625 C 246.769531 295.351562 259.71875 311.246094 273.246094 326.628906 C 284.777344 339.742188 300.214844 339.292969 314.855469 334.761719 C 328.539062 330.527344 335.332031 319.28125 335.34375 304.761719 C 335.414062 226.28125 335.402344 147.800781 335.308594 69.320312 C 337.492188 39.066406 293.328125 24.589844 277.550781 50.40625 C 256.394531 80.714844 235.917969 111.511719 215.621094 142.410156 C 215.308594 142.902344 215.078125 143.429688 214.9375 143.996094 C 213.410156 149.75 219.371094 154.664062 224.867188 152.378906 C 225.515625 152.117188 226.113281 151.769531 226.65625 151.328125 C 248.089844 134.714844 265.210938 115.179688 288.390625 100.566406 Z M 288.390625 274.855469 " fill-opacity="1" fill-rule="nonzero"/><path fill="#55fff5" d="M 288.390625 274.855469 L 288.390625 100.566406 C 265.222656 115.167969 248.082031 134.722656 226.660156 151.324219 C 226.117188 151.765625 225.519531 152.117188 224.871094 152.378906 C 219.375 154.664062 213.414062 149.75 214.9375 143.996094 C 215.082031 143.429688 215.308594 142.902344 215.625 142.410156 C 235.917969 111.511719 256.390625 80.714844 277.550781 50.40625 C 293.316406 24.609375 337.5 39.050781 335.308594 69.316406 C 335.453125 147.796875 335.46875 226.277344 335.34375 304.757812 C 335.332031 319.28125 328.539062 330.527344 314.855469 334.761719 C 300.214844 339.292969 284.777344 339.738281 273.246094 326.625 C 259.71875 311.242188 246.769531 295.351562 233.632812 279.625 C 183.066406 219.722656 134.601562 159.667969 83.222656 100.261719 L 83.222656 275.171875 C 102.472656 259.980469 117.417969 242.734375 136.339844 230.515625 C 143.976562 225.589844 153.0625 234.519531 148.203125 242.199219 C 148.164062 242.261719 148.121094 242.324219 148.082031 242.390625 C 131.296875 268.414062 113.730469 293.9375 96.308594 319.550781 C 77.40625 350.792969 33.707031 338.128906 35.355469 301.15625 C 35.296875 225.675781 35.292969 150.195312 35.347656 74.714844 C 32.515625 35.144531 79.339844 24.238281 100.878906 51.5 C 164 126.113281 224.378906 200.714844 288.390625 274.855469 Z M 288.390625 274.855469 " fill-opacity="1" fill-rule="nonzero"/></svg>